<mxfile host="app.diagrams.net" agent="Mozilla/5.0 (Windows NT 10.0; Win64; x64; rv:133.0) Gecko/20100101 Firefox/133.0" version="25.0.1">
  <diagram name="Página-1" id="IKj3SKVM-NGWDVBX91Uw">
    <mxGraphModel dx="1760" dy="884" grid="1" gridSize="10" guides="1" tooltips="1" connect="1" arrows="1" fold="1" page="1" pageScale="1" pageWidth="1500" pageHeight="1200" math="0" shadow="0">
      <root>
        <mxCell id="0" />
        <mxCell id="1" parent="0" />
        <mxCell id="-d1CYgEN2nXXVW5TSLsx-1" value="Início" style="ellipse;whiteSpace=wrap;html=1;aspect=fixed;" parent="1" vertex="1">
          <mxGeometry x="120" y="265" width="50" height="50" as="geometry" />
        </mxCell>
        <mxCell id="-d1CYgEN2nXXVW5TSLsx-2" value="" style="endArrow=classic;html=1;rounded=0;fillColor=#a20025;strokeColor=#6F0000;" parent="1" edge="1">
          <mxGeometry width="50" height="50" relative="1" as="geometry">
            <mxPoint x="170" y="289.5" as="sourcePoint" />
            <mxPoint x="210" y="290" as="targetPoint" />
          </mxGeometry>
        </mxCell>
        <mxCell id="-d1CYgEN2nXXVW5TSLsx-7" value="" style="edgeStyle=orthogonalEdgeStyle;rounded=0;orthogonalLoop=1;jettySize=auto;html=1;" parent="1" source="-d1CYgEN2nXXVW5TSLsx-3" target="-d1CYgEN2nXXVW5TSLsx-5" edge="1">
          <mxGeometry relative="1" as="geometry" />
        </mxCell>
        <mxCell id="-d1CYgEN2nXXVW5TSLsx-3" value="Documento de Requisitos" style="ellipse;whiteSpace=wrap;html=1;aspect=fixed;" parent="1" vertex="1">
          <mxGeometry x="210" y="250" width="80" height="80" as="geometry" />
        </mxCell>
        <mxCell id="-d1CYgEN2nXXVW5TSLsx-4" value="" style="endArrow=classic;html=1;rounded=0;strokeColor=#6F0000;fillColor=#a20025;" parent="1" edge="1">
          <mxGeometry width="50" height="50" relative="1" as="geometry">
            <mxPoint x="290" y="289.5" as="sourcePoint" />
            <mxPoint x="330" y="290" as="targetPoint" />
          </mxGeometry>
        </mxCell>
        <mxCell id="-d1CYgEN2nXXVW5TSLsx-5" value="Relatório de Defeitos&lt;div&gt;Documento de Requisitos&lt;/div&gt;" style="ellipse;whiteSpace=wrap;html=1;aspect=fixed;" parent="1" vertex="1">
          <mxGeometry x="330" y="240" width="100" height="100" as="geometry" />
        </mxCell>
        <mxCell id="-d1CYgEN2nXXVW5TSLsx-6" value="Diagrama de Casos de Uso" style="ellipse;whiteSpace=wrap;html=1;aspect=fixed;" parent="1" vertex="1">
          <mxGeometry x="470" y="250" width="80" height="80" as="geometry" />
        </mxCell>
        <mxCell id="-d1CYgEN2nXXVW5TSLsx-9" value="" style="endArrow=classic;html=1;rounded=0;strokeColor=#6F0000;fillColor=#a20025;" parent="1" edge="1">
          <mxGeometry width="50" height="50" relative="1" as="geometry">
            <mxPoint x="430" y="289.5" as="sourcePoint" />
            <mxPoint x="470" y="290" as="targetPoint" />
          </mxGeometry>
        </mxCell>
        <mxCell id="-d1CYgEN2nXXVW5TSLsx-24" value="" style="edgeStyle=orthogonalEdgeStyle;rounded=0;orthogonalLoop=1;jettySize=auto;html=1;" parent="1" source="-d1CYgEN2nXXVW5TSLsx-10" target="-d1CYgEN2nXXVW5TSLsx-16" edge="1">
          <mxGeometry relative="1" as="geometry" />
        </mxCell>
        <mxCell id="-d1CYgEN2nXXVW5TSLsx-10" value="Documento de Casos de Uso Expandido" style="ellipse;whiteSpace=wrap;html=1;aspect=fixed;" parent="1" vertex="1">
          <mxGeometry x="590" y="240" width="100" height="100" as="geometry" />
        </mxCell>
        <mxCell id="-d1CYgEN2nXXVW5TSLsx-11" value="" style="endArrow=classic;html=1;rounded=0;" parent="1" target="-d1CYgEN2nXXVW5TSLsx-10" edge="1">
          <mxGeometry width="50" height="50" relative="1" as="geometry">
            <mxPoint x="550" y="289.5" as="sourcePoint" />
            <mxPoint x="590" y="290" as="targetPoint" />
          </mxGeometry>
        </mxCell>
        <mxCell id="-d1CYgEN2nXXVW5TSLsx-13" value="" style="endArrow=classic;html=1;rounded=0;fillColor=#f8cecc;strokeColor=#b85450;" parent="1" source="-d1CYgEN2nXXVW5TSLsx-6" edge="1">
          <mxGeometry width="50" height="50" relative="1" as="geometry">
            <mxPoint x="550" y="230" as="sourcePoint" />
            <mxPoint x="590" y="130" as="targetPoint" />
            <Array as="points">
              <mxPoint x="570" y="130" />
            </Array>
          </mxGeometry>
        </mxCell>
        <mxCell id="-d1CYgEN2nXXVW5TSLsx-44" value="" style="edgeStyle=orthogonalEdgeStyle;rounded=0;orthogonalLoop=1;jettySize=auto;html=1;" parent="1" source="-d1CYgEN2nXXVW5TSLsx-14" target="-d1CYgEN2nXXVW5TSLsx-15" edge="1">
          <mxGeometry relative="1" as="geometry" />
        </mxCell>
        <mxCell id="-d1CYgEN2nXXVW5TSLsx-14" value="Documento de Casos de Uso de Alto Nível" style="ellipse;whiteSpace=wrap;html=1;aspect=fixed;" parent="1" vertex="1">
          <mxGeometry x="590" y="80" width="100" height="100" as="geometry" />
        </mxCell>
        <mxCell id="-d1CYgEN2nXXVW5TSLsx-15" value="Relatório de Defeitos Casos de Uso de Alto Nível" style="ellipse;whiteSpace=wrap;html=1;aspect=fixed;" parent="1" vertex="1">
          <mxGeometry x="730" y="80" width="100" height="100" as="geometry" />
        </mxCell>
        <mxCell id="-d1CYgEN2nXXVW5TSLsx-16" value="Relatório de Defeitos Casos de Uso Expandido" style="ellipse;whiteSpace=wrap;html=1;aspect=fixed;" parent="1" vertex="1">
          <mxGeometry x="730" y="240" width="100" height="100" as="geometry" />
        </mxCell>
        <mxCell id="-d1CYgEN2nXXVW5TSLsx-18" value="" style="endArrow=classic;html=1;rounded=0;fillColor=#f8cecc;strokeColor=#b85450;" parent="1" source="-d1CYgEN2nXXVW5TSLsx-14" target="-d1CYgEN2nXXVW5TSLsx-15" edge="1">
          <mxGeometry width="50" height="50" relative="1" as="geometry">
            <mxPoint x="690" y="129.5" as="sourcePoint" />
            <mxPoint x="730" y="130" as="targetPoint" />
          </mxGeometry>
        </mxCell>
        <mxCell id="-d1CYgEN2nXXVW5TSLsx-19" value="" style="endArrow=classic;html=1;rounded=0;" parent="1" source="-d1CYgEN2nXXVW5TSLsx-10" target="-d1CYgEN2nXXVW5TSLsx-16" edge="1">
          <mxGeometry width="50" height="50" relative="1" as="geometry">
            <mxPoint x="690" y="289.5" as="sourcePoint" />
            <mxPoint x="730" y="290" as="targetPoint" />
          </mxGeometry>
        </mxCell>
        <mxCell id="-d1CYgEN2nXXVW5TSLsx-20" value="Modelo Conceitual" style="ellipse;whiteSpace=wrap;html=1;aspect=fixed;" parent="1" vertex="1">
          <mxGeometry x="860" y="170" width="80" height="80" as="geometry" />
        </mxCell>
        <mxCell id="-d1CYgEN2nXXVW5TSLsx-21" value="" style="endArrow=classic;html=1;rounded=0;fillColor=#f8cecc;strokeColor=#b85450;" parent="1" target="-d1CYgEN2nXXVW5TSLsx-20" edge="1">
          <mxGeometry width="50" height="50" relative="1" as="geometry">
            <mxPoint x="830" y="129.5" as="sourcePoint" />
            <mxPoint x="870" y="130" as="targetPoint" />
            <Array as="points">
              <mxPoint x="850" y="130" />
            </Array>
          </mxGeometry>
        </mxCell>
        <mxCell id="-d1CYgEN2nXXVW5TSLsx-22" value="" style="endArrow=classic;html=1;rounded=0;" parent="1" target="-d1CYgEN2nXXVW5TSLsx-20" edge="1">
          <mxGeometry width="50" height="50" relative="1" as="geometry">
            <mxPoint x="830" y="290" as="sourcePoint" />
            <mxPoint x="870" y="290.5" as="targetPoint" />
            <Array as="points">
              <mxPoint x="850" y="290" />
            </Array>
          </mxGeometry>
        </mxCell>
        <mxCell id="-d1CYgEN2nXXVW5TSLsx-23" value="Relatório de Defeitos&lt;div&gt;Modelo Conceitual&lt;/div&gt;" style="ellipse;whiteSpace=wrap;html=1;aspect=fixed;" parent="1" vertex="1">
          <mxGeometry x="980" y="160" width="100" height="100" as="geometry" />
        </mxCell>
        <mxCell id="-d1CYgEN2nXXVW5TSLsx-25" value="" style="endArrow=classic;html=1;rounded=0;" parent="1" source="-d1CYgEN2nXXVW5TSLsx-34" target="-d1CYgEN2nXXVW5TSLsx-36" edge="1">
          <mxGeometry width="50" height="50" relative="1" as="geometry">
            <mxPoint x="1070" y="409.47" as="sourcePoint" />
            <mxPoint x="1110" y="350" as="targetPoint" />
            <Array as="points">
              <mxPoint x="1090" y="350" />
            </Array>
          </mxGeometry>
        </mxCell>
        <mxCell id="-d1CYgEN2nXXVW5TSLsx-26" value="Diagrama de Colaboração" style="ellipse;whiteSpace=wrap;html=1;aspect=fixed;" parent="1" vertex="1">
          <mxGeometry x="1120" y="160" width="100" height="100" as="geometry" />
        </mxCell>
        <mxCell id="-d1CYgEN2nXXVW5TSLsx-27" value="" style="endArrow=classic;html=1;rounded=0;fillColor=#f8cecc;strokeColor=#b85450;" parent="1" edge="1">
          <mxGeometry width="50" height="50" relative="1" as="geometry">
            <mxPoint x="1080" y="209.5" as="sourcePoint" />
            <mxPoint x="1120" y="210" as="targetPoint" />
          </mxGeometry>
        </mxCell>
        <mxCell id="-d1CYgEN2nXXVW5TSLsx-28" value="Relatório de Defeitos Diagrama de Colaboração" style="ellipse;whiteSpace=wrap;html=1;aspect=fixed;" parent="1" vertex="1">
          <mxGeometry x="1260" y="160" width="100" height="100" as="geometry" />
        </mxCell>
        <mxCell id="-d1CYgEN2nXXVW5TSLsx-29" value="" style="endArrow=classic;html=1;rounded=0;fillColor=#f8cecc;strokeColor=#b85450;" parent="1" edge="1">
          <mxGeometry width="50" height="50" relative="1" as="geometry">
            <mxPoint x="1220" y="209.5" as="sourcePoint" />
            <mxPoint x="1260" y="210" as="targetPoint" />
          </mxGeometry>
        </mxCell>
        <mxCell id="-d1CYgEN2nXXVW5TSLsx-32" value="Relatório de Defeitos Casos de Uso" style="ellipse;whiteSpace=wrap;html=1;aspect=fixed;" parent="1" vertex="1">
          <mxGeometry x="850" y="360" width="100" height="100" as="geometry" />
        </mxCell>
        <mxCell id="-d1CYgEN2nXXVW5TSLsx-33" value="" style="endArrow=classic;html=1;rounded=0;entryX=0;entryY=0.5;entryDx=0;entryDy=0;" parent="1" source="-d1CYgEN2nXXVW5TSLsx-6" target="-d1CYgEN2nXXVW5TSLsx-32" edge="1">
          <mxGeometry width="50" height="50" relative="1" as="geometry">
            <mxPoint x="420" y="330" as="sourcePoint" />
            <mxPoint x="460" y="330.5" as="targetPoint" />
            <Array as="points">
              <mxPoint x="570" y="410" />
            </Array>
          </mxGeometry>
        </mxCell>
        <mxCell id="-d1CYgEN2nXXVW5TSLsx-34" value="Diagrama de Sequência" style="ellipse;whiteSpace=wrap;html=1;aspect=fixed;" parent="1" vertex="1">
          <mxGeometry x="990" y="370" width="80" height="80" as="geometry" />
        </mxCell>
        <mxCell id="-d1CYgEN2nXXVW5TSLsx-35" value="" style="endArrow=classic;html=1;rounded=0;" parent="1" edge="1">
          <mxGeometry width="50" height="50" relative="1" as="geometry">
            <mxPoint x="950" y="409.5" as="sourcePoint" />
            <mxPoint x="990" y="410" as="targetPoint" />
          </mxGeometry>
        </mxCell>
        <mxCell id="-d1CYgEN2nXXVW5TSLsx-36" value="Diagrama de Classes" style="ellipse;whiteSpace=wrap;html=1;aspect=fixed;" parent="1" vertex="1">
          <mxGeometry x="1130" y="310" width="80" height="80" as="geometry" />
        </mxCell>
        <mxCell id="-d1CYgEN2nXXVW5TSLsx-38" value="Relatório de Defeitos Diagrama de Sequência" style="ellipse;whiteSpace=wrap;html=1;aspect=fixed;" parent="1" vertex="1">
          <mxGeometry x="1120" y="420" width="100" height="100" as="geometry" />
        </mxCell>
        <mxCell id="-d1CYgEN2nXXVW5TSLsx-40" value="" style="endArrow=classic;html=1;rounded=0;entryX=0;entryY=0.5;entryDx=0;entryDy=0;" parent="1" source="-d1CYgEN2nXXVW5TSLsx-34" target="-d1CYgEN2nXXVW5TSLsx-38" edge="1">
          <mxGeometry width="50" height="50" relative="1" as="geometry">
            <mxPoint x="1060" y="450" as="sourcePoint" />
            <mxPoint x="1100" y="450.5" as="targetPoint" />
            <Array as="points">
              <mxPoint x="1090" y="470" />
            </Array>
          </mxGeometry>
        </mxCell>
        <mxCell id="-d1CYgEN2nXXVW5TSLsx-41" value="Relatório de Defeitos Diagrama de Classes" style="ellipse;whiteSpace=wrap;html=1;aspect=fixed;" parent="1" vertex="1">
          <mxGeometry x="1260" y="300" width="100" height="100" as="geometry" />
        </mxCell>
        <mxCell id="-d1CYgEN2nXXVW5TSLsx-42" value="" style="endArrow=classic;html=1;rounded=0;" parent="1" source="-d1CYgEN2nXXVW5TSLsx-36" target="-d1CYgEN2nXXVW5TSLsx-41" edge="1">
          <mxGeometry width="50" height="50" relative="1" as="geometry">
            <mxPoint x="1210" y="349.47" as="sourcePoint" />
            <mxPoint x="1250" y="349.97" as="targetPoint" />
          </mxGeometry>
        </mxCell>
        <mxCell id="-d1CYgEN2nXXVW5TSLsx-43" value="" style="endArrow=classic;html=1;rounded=0;fillColor=#f8cecc;strokeColor=#b85450;" parent="1" edge="1">
          <mxGeometry width="50" height="50" relative="1" as="geometry">
            <mxPoint x="940" y="209.47000000000003" as="sourcePoint" />
            <mxPoint x="980" y="209.97000000000003" as="targetPoint" />
          </mxGeometry>
        </mxCell>
        <mxCell id="-d1CYgEN2nXXVW5TSLsx-46" value="" style="endArrow=classic;html=1;rounded=0;" parent="1" source="-d1CYgEN2nXXVW5TSLsx-41" target="W42R2RPPDMQHl6AB9smQ-2" edge="1">
          <mxGeometry width="50" height="50" relative="1" as="geometry">
            <mxPoint x="1360" y="349.47" as="sourcePoint" />
            <mxPoint x="1418.3886351367719" y="311.2882248134929" as="targetPoint" />
            <Array as="points">
              <mxPoint x="1390" y="350" />
            </Array>
          </mxGeometry>
        </mxCell>
        <mxCell id="-d1CYgEN2nXXVW5TSLsx-47" value="" style="endArrow=classic;html=1;rounded=0;fillColor=#f8cecc;strokeColor=#b85450;" parent="1" source="-d1CYgEN2nXXVW5TSLsx-28" target="W42R2RPPDMQHl6AB9smQ-2" edge="1">
          <mxGeometry width="50" height="50" relative="1" as="geometry">
            <mxPoint x="1370" y="229" as="sourcePoint" />
            <mxPoint x="1415.9325991340215" y="240.64761715838904" as="targetPoint" />
            <Array as="points">
              <mxPoint x="1390" y="210" />
            </Array>
          </mxGeometry>
        </mxCell>
        <mxCell id="W42R2RPPDMQHl6AB9smQ-2" value="&lt;div&gt;1&lt;/div&gt;" style="ellipse;whiteSpace=wrap;html=1;aspect=fixed;" parent="1" vertex="1">
          <mxGeometry x="1490" y="270" width="50" height="50" as="geometry" />
        </mxCell>
        <mxCell id="RyhXMVObNiBPsrm2vfnA-98" style="edgeStyle=orthogonalEdgeStyle;rounded=0;orthogonalLoop=1;jettySize=auto;html=1;exitX=1;exitY=0.5;exitDx=0;exitDy=0;entryX=0;entryY=0.5;entryDx=0;entryDy=0;" parent="1" source="W42R2RPPDMQHl6AB9smQ-4" target="W42R2RPPDMQHl6AB9smQ-10" edge="1">
          <mxGeometry relative="1" as="geometry" />
        </mxCell>
        <mxCell id="W42R2RPPDMQHl6AB9smQ-4" value="1.2" style="ellipse;whiteSpace=wrap;html=1;aspect=fixed;" parent="1" vertex="1">
          <mxGeometry x="1570" y="270" width="50" height="50" as="geometry" />
        </mxCell>
        <mxCell id="W42R2RPPDMQHl6AB9smQ-5" value="" style="endArrow=classic;html=1;rounded=0;" parent="1" target="W42R2RPPDMQHl6AB9smQ-4" edge="1">
          <mxGeometry width="50" height="50" relative="1" as="geometry">
            <mxPoint x="1540" y="295" as="sourcePoint" />
            <mxPoint x="1830" y="380" as="targetPoint" />
          </mxGeometry>
        </mxCell>
        <mxCell id="RyhXMVObNiBPsrm2vfnA-54" style="rounded=0;orthogonalLoop=1;jettySize=auto;html=1;exitX=1;exitY=1;exitDx=0;exitDy=0;fillColor=#a20025;strokeColor=#6F0000;" parent="1" source="W42R2RPPDMQHl6AB9smQ-6" target="W42R2RPPDMQHl6AB9smQ-10" edge="1">
          <mxGeometry relative="1" as="geometry" />
        </mxCell>
        <mxCell id="W42R2RPPDMQHl6AB9smQ-6" value="1.1" style="ellipse;whiteSpace=wrap;html=1;aspect=fixed;" parent="1" vertex="1">
          <mxGeometry x="1570" y="200" width="50" height="50" as="geometry" />
        </mxCell>
        <mxCell id="W42R2RPPDMQHl6AB9smQ-7" value="" style="endArrow=classic;html=1;rounded=0;entryX=0;entryY=0.5;entryDx=0;entryDy=0;fillColor=#a20025;strokeColor=#6F0000;" parent="1" source="W42R2RPPDMQHl6AB9smQ-2" target="W42R2RPPDMQHl6AB9smQ-6" edge="1">
          <mxGeometry width="50" height="50" relative="1" as="geometry">
            <mxPoint x="1540" y="225" as="sourcePoint" />
            <mxPoint x="1830" y="310" as="targetPoint" />
            <Array as="points">
              <mxPoint x="1550" y="225" />
            </Array>
          </mxGeometry>
        </mxCell>
        <mxCell id="RyhXMVObNiBPsrm2vfnA-99" style="rounded=0;orthogonalLoop=1;jettySize=auto;html=1;exitX=1;exitY=0.5;exitDx=0;exitDy=0;" parent="1" source="W42R2RPPDMQHl6AB9smQ-8" target="W42R2RPPDMQHl6AB9smQ-10" edge="1">
          <mxGeometry relative="1" as="geometry" />
        </mxCell>
        <mxCell id="W42R2RPPDMQHl6AB9smQ-8" value="1.3" style="ellipse;whiteSpace=wrap;html=1;aspect=fixed;" parent="1" vertex="1">
          <mxGeometry x="1570" y="340" width="50" height="50" as="geometry" />
        </mxCell>
        <mxCell id="W42R2RPPDMQHl6AB9smQ-9" value="" style="endArrow=classic;html=1;rounded=0;" parent="1" source="W42R2RPPDMQHl6AB9smQ-2" target="W42R2RPPDMQHl6AB9smQ-8" edge="1">
          <mxGeometry width="50" height="50" relative="1" as="geometry">
            <mxPoint x="1540" y="365" as="sourcePoint" />
            <mxPoint x="1830" y="450" as="targetPoint" />
            <Array as="points">
              <mxPoint x="1550" y="365" />
            </Array>
          </mxGeometry>
        </mxCell>
        <mxCell id="W42R2RPPDMQHl6AB9smQ-10" value="2" style="ellipse;whiteSpace=wrap;html=1;aspect=fixed;" parent="1" vertex="1">
          <mxGeometry x="1650" y="270" width="50" height="50" as="geometry" />
        </mxCell>
        <mxCell id="RyhXMVObNiBPsrm2vfnA-94" style="edgeStyle=orthogonalEdgeStyle;rounded=0;orthogonalLoop=1;jettySize=auto;html=1;exitX=1;exitY=0.5;exitDx=0;exitDy=0;" parent="1" source="W42R2RPPDMQHl6AB9smQ-14" target="W42R2RPPDMQHl6AB9smQ-24" edge="1">
          <mxGeometry relative="1" as="geometry" />
        </mxCell>
        <mxCell id="W42R2RPPDMQHl6AB9smQ-14" value="2.2" style="ellipse;whiteSpace=wrap;html=1;aspect=fixed;" parent="1" vertex="1">
          <mxGeometry x="1730" y="270" width="50" height="50" as="geometry" />
        </mxCell>
        <mxCell id="W42R2RPPDMQHl6AB9smQ-15" value="" style="endArrow=classic;html=1;rounded=0;" parent="1" target="W42R2RPPDMQHl6AB9smQ-14" edge="1">
          <mxGeometry width="50" height="50" relative="1" as="geometry">
            <mxPoint x="1700" y="295" as="sourcePoint" />
            <mxPoint x="1990" y="380" as="targetPoint" />
          </mxGeometry>
        </mxCell>
        <mxCell id="RyhXMVObNiBPsrm2vfnA-59" style="rounded=0;orthogonalLoop=1;jettySize=auto;html=1;exitX=1;exitY=1;exitDx=0;exitDy=0;" parent="1" source="W42R2RPPDMQHl6AB9smQ-16" target="W42R2RPPDMQHl6AB9smQ-24" edge="1">
          <mxGeometry relative="1" as="geometry" />
        </mxCell>
        <mxCell id="W42R2RPPDMQHl6AB9smQ-16" value="2.1" style="ellipse;whiteSpace=wrap;html=1;aspect=fixed;" parent="1" vertex="1">
          <mxGeometry x="1730" y="200" width="50" height="50" as="geometry" />
        </mxCell>
        <mxCell id="W42R2RPPDMQHl6AB9smQ-17" value="" style="endArrow=classic;html=1;rounded=0;entryX=0;entryY=0.5;entryDx=0;entryDy=0;" parent="1" target="W42R2RPPDMQHl6AB9smQ-16" edge="1">
          <mxGeometry width="50" height="50" relative="1" as="geometry">
            <mxPoint x="1686" y="273" as="sourcePoint" />
            <mxPoint x="1990" y="310" as="targetPoint" />
            <Array as="points">
              <mxPoint x="1710" y="225" />
            </Array>
          </mxGeometry>
        </mxCell>
        <mxCell id="RyhXMVObNiBPsrm2vfnA-95" style="rounded=0;orthogonalLoop=1;jettySize=auto;html=1;exitX=1;exitY=0.5;exitDx=0;exitDy=0;fillColor=#f8cecc;strokeColor=#b85450;" parent="1" source="W42R2RPPDMQHl6AB9smQ-18" target="W42R2RPPDMQHl6AB9smQ-24" edge="1">
          <mxGeometry relative="1" as="geometry" />
        </mxCell>
        <mxCell id="W42R2RPPDMQHl6AB9smQ-18" value="2.3" style="ellipse;whiteSpace=wrap;html=1;aspect=fixed;" parent="1" vertex="1">
          <mxGeometry x="1730" y="340" width="50" height="50" as="geometry" />
        </mxCell>
        <mxCell id="W42R2RPPDMQHl6AB9smQ-19" value="" style="endArrow=classic;html=1;rounded=0;fillColor=#f8cecc;strokeColor=#b85450;" parent="1" target="W42R2RPPDMQHl6AB9smQ-18" edge="1">
          <mxGeometry width="50" height="50" relative="1" as="geometry">
            <mxPoint x="1686" y="317" as="sourcePoint" />
            <mxPoint x="1990" y="450" as="targetPoint" />
            <Array as="points">
              <mxPoint x="1710" y="365" />
            </Array>
          </mxGeometry>
        </mxCell>
        <mxCell id="RyhXMVObNiBPsrm2vfnA-33" style="edgeStyle=orthogonalEdgeStyle;rounded=0;orthogonalLoop=1;jettySize=auto;html=1;exitX=0.5;exitY=1;exitDx=0;exitDy=0;" parent="1" source="W42R2RPPDMQHl6AB9smQ-24" target="RyhXMVObNiBPsrm2vfnA-32" edge="1">
          <mxGeometry relative="1" as="geometry">
            <Array as="points">
              <mxPoint x="1835" y="440" />
            </Array>
          </mxGeometry>
        </mxCell>
        <mxCell id="W42R2RPPDMQHl6AB9smQ-24" value="3" style="ellipse;whiteSpace=wrap;html=1;aspect=fixed;" parent="1" vertex="1">
          <mxGeometry x="1810" y="270" width="50" height="50" as="geometry" />
        </mxCell>
        <mxCell id="W42R2RPPDMQHl6AB9smQ-25" value="2.1.2" style="ellipse;whiteSpace=wrap;html=1;aspect=fixed;" parent="1" vertex="1">
          <mxGeometry x="1890" y="270" width="50" height="50" as="geometry" />
        </mxCell>
        <mxCell id="W42R2RPPDMQHl6AB9smQ-26" value="" style="endArrow=classic;html=1;rounded=0;" parent="1" target="W42R2RPPDMQHl6AB9smQ-25" edge="1">
          <mxGeometry width="50" height="50" relative="1" as="geometry">
            <mxPoint x="1860" y="295" as="sourcePoint" />
            <mxPoint x="2150" y="380" as="targetPoint" />
          </mxGeometry>
        </mxCell>
        <mxCell id="W42R2RPPDMQHl6AB9smQ-27" value="2.1.1" style="ellipse;whiteSpace=wrap;html=1;aspect=fixed;" parent="1" vertex="1">
          <mxGeometry x="1890" y="200" width="50" height="50" as="geometry" />
        </mxCell>
        <mxCell id="W42R2RPPDMQHl6AB9smQ-28" value="" style="endArrow=classic;html=1;rounded=0;entryX=0;entryY=0.5;entryDx=0;entryDy=0;" parent="1" source="W42R2RPPDMQHl6AB9smQ-24" target="W42R2RPPDMQHl6AB9smQ-27" edge="1">
          <mxGeometry width="50" height="50" relative="1" as="geometry">
            <mxPoint x="1860" y="225" as="sourcePoint" />
            <mxPoint x="2150" y="310" as="targetPoint" />
            <Array as="points">
              <mxPoint x="1870" y="225" />
            </Array>
          </mxGeometry>
        </mxCell>
        <mxCell id="W42R2RPPDMQHl6AB9smQ-29" value="2.1.3" style="ellipse;whiteSpace=wrap;html=1;aspect=fixed;" parent="1" vertex="1">
          <mxGeometry x="1890" y="340" width="50" height="50" as="geometry" />
        </mxCell>
        <mxCell id="W42R2RPPDMQHl6AB9smQ-30" value="" style="endArrow=classic;html=1;rounded=0;fillColor=#f8cecc;strokeColor=#b85450;" parent="1" source="W42R2RPPDMQHl6AB9smQ-24" target="W42R2RPPDMQHl6AB9smQ-29" edge="1">
          <mxGeometry width="50" height="50" relative="1" as="geometry">
            <mxPoint x="1860" y="365" as="sourcePoint" />
            <mxPoint x="2150" y="450" as="targetPoint" />
            <Array as="points">
              <mxPoint x="1870" y="365" />
            </Array>
          </mxGeometry>
        </mxCell>
        <mxCell id="W42R2RPPDMQHl6AB9smQ-32" value="" style="endArrow=classic;html=1;rounded=0;" parent="1" target="W42R2RPPDMQHl6AB9smQ-68" edge="1">
          <mxGeometry width="50" height="50" relative="1" as="geometry">
            <mxPoint x="1940" y="295" as="sourcePoint" />
            <mxPoint x="1980.0000000000014" y="295" as="targetPoint" />
          </mxGeometry>
        </mxCell>
        <mxCell id="W42R2RPPDMQHl6AB9smQ-33" value="" style="endArrow=classic;html=1;rounded=0;exitX=1;exitY=0.5;exitDx=0;exitDy=0;" parent="1" source="W42R2RPPDMQHl6AB9smQ-27" target="W42R2RPPDMQHl6AB9smQ-68" edge="1">
          <mxGeometry width="50" height="50" relative="1" as="geometry">
            <mxPoint x="1950" y="305" as="sourcePoint" />
            <mxPoint x="1991" y="274" as="targetPoint" />
            <Array as="points">
              <mxPoint x="1960" y="225" />
            </Array>
          </mxGeometry>
        </mxCell>
        <mxCell id="W42R2RPPDMQHl6AB9smQ-34" value="" style="endArrow=classic;html=1;rounded=0;exitX=1;exitY=0.5;exitDx=0;exitDy=0;fillColor=#f8cecc;strokeColor=#b85450;" parent="1" source="W42R2RPPDMQHl6AB9smQ-29" target="W42R2RPPDMQHl6AB9smQ-68" edge="1">
          <mxGeometry width="50" height="50" relative="1" as="geometry">
            <mxPoint x="1960" y="315" as="sourcePoint" />
            <mxPoint x="1992.4" y="318.6" as="targetPoint" />
            <Array as="points">
              <mxPoint x="1960" y="365" />
            </Array>
          </mxGeometry>
        </mxCell>
        <mxCell id="W42R2RPPDMQHl6AB9smQ-68" value="Fim" style="ellipse;whiteSpace=wrap;html=1;aspect=fixed;" parent="1" vertex="1">
          <mxGeometry x="2040" y="270" width="50" height="50" as="geometry" />
        </mxCell>
        <mxCell id="W42R2RPPDMQHl6AB9smQ-70" value="Desenvolvimento" style="text;html=1;align=center;verticalAlign=middle;resizable=0;points=[];autosize=1;strokeColor=none;fillColor=none;" parent="1" vertex="1">
          <mxGeometry x="1615" y="150" width="120" height="30" as="geometry" />
        </mxCell>
        <mxCell id="W42R2RPPDMQHl6AB9smQ-71" value="Documentação" style="text;html=1;align=center;verticalAlign=middle;resizable=0;points=[];autosize=1;strokeColor=none;fillColor=none;" parent="1" vertex="1">
          <mxGeometry x="660" y="50" width="100" height="30" as="geometry" />
        </mxCell>
        <mxCell id="W42R2RPPDMQHl6AB9smQ-72" value="" style="endArrow=classic;html=1;rounded=0;exitX=1;exitY=0.5;exitDx=0;exitDy=0;" parent="1" source="-d1CYgEN2nXXVW5TSLsx-38" target="W42R2RPPDMQHl6AB9smQ-2" edge="1">
          <mxGeometry width="50" height="50" relative="1" as="geometry">
            <mxPoint x="980" y="410" as="sourcePoint" />
            <mxPoint x="1445" y="320" as="targetPoint" />
            <Array as="points">
              <mxPoint x="1350" y="470" />
            </Array>
          </mxGeometry>
        </mxCell>
        <mxCell id="RyhXMVObNiBPsrm2vfnA-1" value="&lt;div&gt;3&lt;/div&gt;" style="text;html=1;align=center;verticalAlign=middle;resizable=0;points=[];autosize=1;strokeColor=none;fillColor=none;" parent="1" vertex="1">
          <mxGeometry x="175" y="248" width="30" height="30" as="geometry" />
        </mxCell>
        <mxCell id="RyhXMVObNiBPsrm2vfnA-2" value="&lt;div&gt;7&lt;/div&gt;" style="text;html=1;align=center;verticalAlign=middle;resizable=0;points=[];autosize=1;strokeColor=none;fillColor=none;" parent="1" vertex="1">
          <mxGeometry x="295" y="248" width="30" height="30" as="geometry" />
        </mxCell>
        <mxCell id="RyhXMVObNiBPsrm2vfnA-3" value="2" style="text;html=1;align=center;verticalAlign=middle;resizable=0;points=[];autosize=1;strokeColor=none;fillColor=none;" parent="1" vertex="1">
          <mxGeometry x="440" y="258" width="30" height="30" as="geometry" />
        </mxCell>
        <mxCell id="RyhXMVObNiBPsrm2vfnA-4" value="&lt;div&gt;3&lt;/div&gt;" style="text;html=1;align=center;verticalAlign=middle;resizable=0;points=[];autosize=1;strokeColor=none;fillColor=none;" parent="1" vertex="1">
          <mxGeometry x="555" y="258" width="30" height="30" as="geometry" />
        </mxCell>
        <mxCell id="RyhXMVObNiBPsrm2vfnA-5" value="2" style="text;html=1;align=center;verticalAlign=middle;resizable=0;points=[];autosize=1;strokeColor=none;fillColor=none;" parent="1" vertex="1">
          <mxGeometry x="705" y="388" width="30" height="30" as="geometry" />
        </mxCell>
        <mxCell id="RyhXMVObNiBPsrm2vfnA-6" value="2" style="text;html=1;align=center;verticalAlign=middle;resizable=0;points=[];autosize=1;strokeColor=none;fillColor=none;" parent="1" vertex="1">
          <mxGeometry x="695" y="258" width="30" height="30" as="geometry" />
        </mxCell>
        <mxCell id="RyhXMVObNiBPsrm2vfnA-7" value="2" style="text;html=1;align=center;verticalAlign=middle;resizable=0;points=[];autosize=1;strokeColor=none;fillColor=none;" parent="1" vertex="1">
          <mxGeometry x="515" y="168" width="30" height="30" as="geometry" />
        </mxCell>
        <mxCell id="RyhXMVObNiBPsrm2vfnA-8" value="2" style="text;html=1;align=center;verticalAlign=middle;resizable=0;points=[];autosize=1;strokeColor=none;fillColor=none;" parent="1" vertex="1">
          <mxGeometry x="705" y="98" width="30" height="30" as="geometry" />
        </mxCell>
        <mxCell id="RyhXMVObNiBPsrm2vfnA-9" value="5" style="text;html=1;align=center;verticalAlign=middle;resizable=0;points=[];autosize=1;strokeColor=none;fillColor=none;" parent="1" vertex="1">
          <mxGeometry x="865" y="118" width="30" height="30" as="geometry" />
        </mxCell>
        <mxCell id="RyhXMVObNiBPsrm2vfnA-10" value="3" style="text;html=1;align=center;verticalAlign=middle;resizable=0;points=[];autosize=1;strokeColor=none;fillColor=none;" parent="1" vertex="1">
          <mxGeometry x="865" y="278" width="30" height="30" as="geometry" />
        </mxCell>
        <mxCell id="RyhXMVObNiBPsrm2vfnA-11" value="2" style="text;html=1;align=center;verticalAlign=middle;resizable=0;points=[];autosize=1;strokeColor=none;fillColor=none;" parent="1" vertex="1">
          <mxGeometry x="945" y="168" width="30" height="30" as="geometry" />
        </mxCell>
        <mxCell id="RyhXMVObNiBPsrm2vfnA-12" value="5" style="text;html=1;align=center;verticalAlign=middle;resizable=0;points=[];autosize=1;" parent="1" vertex="1">
          <mxGeometry x="955" y="378" width="30" height="30" as="geometry" />
        </mxCell>
        <mxCell id="RyhXMVObNiBPsrm2vfnA-13" value="5" style="text;html=1;align=center;verticalAlign=middle;resizable=0;points=[];autosize=1;" parent="1" vertex="1">
          <mxGeometry x="1075" y="328" width="30" height="30" as="geometry" />
        </mxCell>
        <mxCell id="RyhXMVObNiBPsrm2vfnA-14" value="2" style="text;html=1;align=center;verticalAlign=middle;resizable=0;points=[];autosize=1;" parent="1" vertex="1">
          <mxGeometry x="1085" y="438" width="30" height="30" as="geometry" />
        </mxCell>
        <mxCell id="RyhXMVObNiBPsrm2vfnA-16" value="14" style="text;html=1;align=center;verticalAlign=middle;resizable=0;points=[];autosize=1;strokeColor=none;fillColor=none;" parent="1" vertex="1">
          <mxGeometry x="1220" y="180" width="40" height="30" as="geometry" />
        </mxCell>
        <mxCell id="RyhXMVObNiBPsrm2vfnA-17" value="2" style="text;html=1;align=center;verticalAlign=middle;resizable=0;points=[];autosize=1;strokeColor=none;fillColor=none;" parent="1" vertex="1">
          <mxGeometry x="1225" y="318" width="30" height="30" as="geometry" />
        </mxCell>
        <mxCell id="RyhXMVObNiBPsrm2vfnA-18" value="2" style="text;html=1;align=center;verticalAlign=middle;resizable=0;points=[];autosize=1;" parent="1" vertex="1">
          <mxGeometry x="1325" y="428" width="30" height="30" as="geometry" />
        </mxCell>
        <mxCell id="RyhXMVObNiBPsrm2vfnA-19" value="4" style="text;html=1;align=center;verticalAlign=middle;resizable=0;points=[];autosize=1;strokeColor=none;fillColor=none;" parent="1" vertex="1">
          <mxGeometry x="1405" y="298" width="30" height="30" as="geometry" />
        </mxCell>
        <mxCell id="RyhXMVObNiBPsrm2vfnA-20" value="7" style="text;html=1;align=center;verticalAlign=middle;resizable=0;points=[];autosize=1;strokeColor=none;fillColor=none;" parent="1" vertex="1">
          <mxGeometry x="1435" y="198" width="30" height="30" as="geometry" />
        </mxCell>
        <mxCell id="RyhXMVObNiBPsrm2vfnA-22" value="&lt;div&gt;1. Grupo de casos de uso: usuarios e administradores&lt;/div&gt;" style="text;html=1;align=center;verticalAlign=middle;resizable=0;points=[];autosize=1;strokeColor=none;fillColor=none;" parent="1" vertex="1">
          <mxGeometry x="2150" y="30" width="310" height="30" as="geometry" />
        </mxCell>
        <mxCell id="RyhXMVObNiBPsrm2vfnA-30" value="&lt;div&gt;2. Grupo de casos de uso: Manipulação e exportação de curriculos&lt;br&gt;&lt;/div&gt;" style="text;html=1;align=center;verticalAlign=middle;resizable=0;points=[];autosize=1;strokeColor=none;fillColor=none;" parent="1" vertex="1">
          <mxGeometry x="2150" y="60" width="380" height="30" as="geometry" />
        </mxCell>
        <mxCell id="RyhXMVObNiBPsrm2vfnA-31" value="&lt;div&gt;3. Grupo de casos de uso: Importação de curriculos&lt;/div&gt;" style="text;html=1;align=center;verticalAlign=middle;resizable=0;points=[];autosize=1;strokeColor=none;fillColor=none;" parent="1" vertex="1">
          <mxGeometry x="2150" y="90" width="300" height="30" as="geometry" />
        </mxCell>
        <mxCell id="RyhXMVObNiBPsrm2vfnA-34" style="edgeStyle=orthogonalEdgeStyle;rounded=0;orthogonalLoop=1;jettySize=auto;html=1;" parent="1" source="RyhXMVObNiBPsrm2vfnA-32" target="W42R2RPPDMQHl6AB9smQ-68" edge="1">
          <mxGeometry relative="1" as="geometry" />
        </mxCell>
        <mxCell id="RyhXMVObNiBPsrm2vfnA-32" value="4" style="ellipse;whiteSpace=wrap;html=1;aspect=fixed;" parent="1" vertex="1">
          <mxGeometry x="1890" y="410" width="50" height="50" as="geometry" />
        </mxCell>
        <mxCell id="RyhXMVObNiBPsrm2vfnA-35" value="&lt;div&gt;4. Testes de integração&lt;/div&gt;" style="text;html=1;align=center;verticalAlign=middle;resizable=0;points=[];autosize=1;strokeColor=none;fillColor=none;" parent="1" vertex="1">
          <mxGeometry x="2150" y="118" width="150" height="30" as="geometry" />
        </mxCell>
        <mxCell id="RyhXMVObNiBPsrm2vfnA-36" value="7" style="text;html=1;align=center;verticalAlign=middle;resizable=0;points=[];autosize=1;strokeColor=none;fillColor=none;" parent="1" vertex="1">
          <mxGeometry x="1520" y="210" width="30" height="30" as="geometry" />
        </mxCell>
        <mxCell id="RyhXMVObNiBPsrm2vfnA-37" value="&lt;div&gt;.1 Implementação&lt;br&gt;&lt;/div&gt;" style="text;html=1;align=center;verticalAlign=middle;resizable=0;points=[];autosize=1;strokeColor=none;fillColor=none;" parent="1" vertex="1">
          <mxGeometry x="2150" y="148" width="120" height="30" as="geometry" />
        </mxCell>
        <mxCell id="RyhXMVObNiBPsrm2vfnA-38" value=".2 SQA" style="text;html=1;align=center;verticalAlign=middle;resizable=0;points=[];autosize=1;strokeColor=none;fillColor=none;" parent="1" vertex="1">
          <mxGeometry x="2150" y="178" width="60" height="30" as="geometry" />
        </mxCell>
        <mxCell id="RyhXMVObNiBPsrm2vfnA-39" value=".3 Atualizar documentos" style="text;html=1;align=center;verticalAlign=middle;resizable=0;points=[];autosize=1;strokeColor=none;fillColor=none;" parent="1" vertex="1">
          <mxGeometry x="2150" y="206" width="150" height="30" as="geometry" />
        </mxCell>
        <mxCell id="RyhXMVObNiBPsrm2vfnA-41" value="4" style="text;html=1;align=center;verticalAlign=middle;resizable=0;points=[];autosize=1;strokeColor=none;fillColor=none;" parent="1" vertex="1">
          <mxGeometry x="1670" y="218" width="30" height="30" as="geometry" />
        </mxCell>
        <mxCell id="RyhXMVObNiBPsrm2vfnA-42" value="2" style="text;html=1;align=center;verticalAlign=middle;resizable=0;points=[];autosize=1;strokeColor=none;fillColor=none;" parent="1" vertex="1">
          <mxGeometry x="1830" y="220" width="30" height="30" as="geometry" />
        </mxCell>
        <mxCell id="RyhXMVObNiBPsrm2vfnA-43" value="3" style="text;html=1;align=center;verticalAlign=middle;resizable=0;points=[];autosize=1;strokeColor=none;fillColor=none;" parent="1" vertex="1">
          <mxGeometry x="1990" y="220" width="30" height="30" as="geometry" />
        </mxCell>
        <mxCell id="RyhXMVObNiBPsrm2vfnA-44" value="5" style="text;html=1;align=center;verticalAlign=middle;resizable=0;points=[];autosize=1;strokeColor=none;fillColor=none;" parent="1" vertex="1">
          <mxGeometry x="1860" y="315" width="30" height="30" as="geometry" />
        </mxCell>
        <mxCell id="RyhXMVObNiBPsrm2vfnA-45" value="1" style="text;html=1;align=center;verticalAlign=middle;resizable=0;points=[];autosize=1;strokeColor=none;fillColor=none;" parent="1" vertex="1">
          <mxGeometry x="1965" y="268" width="30" height="30" as="geometry" />
        </mxCell>
        <mxCell id="RyhXMVObNiBPsrm2vfnA-46" value="2" style="text;html=1;align=center;verticalAlign=middle;resizable=0;points=[];autosize=1;strokeColor=none;fillColor=none;" parent="1" vertex="1">
          <mxGeometry x="1975" y="318" width="30" height="30" as="geometry" />
        </mxCell>
        <mxCell id="RyhXMVObNiBPsrm2vfnA-47" value="2" style="text;html=1;align=center;verticalAlign=middle;resizable=0;points=[];autosize=1;strokeColor=none;fillColor=none;" parent="1" vertex="1">
          <mxGeometry x="1845" y="418" width="30" height="30" as="geometry" />
        </mxCell>
        <mxCell id="RyhXMVObNiBPsrm2vfnA-48" value="1" style="text;html=1;align=center;verticalAlign=middle;resizable=0;points=[];autosize=1;strokeColor=none;fillColor=none;" parent="1" vertex="1">
          <mxGeometry x="2005" y="408" width="30" height="30" as="geometry" />
        </mxCell>
        <mxCell id="RyhXMVObNiBPsrm2vfnA-49" value="1" style="text;html=1;align=center;verticalAlign=middle;resizable=0;points=[];autosize=1;strokeColor=none;fillColor=none;" parent="1" vertex="1">
          <mxGeometry x="1545" y="268" width="30" height="30" as="geometry" />
        </mxCell>
        <mxCell id="RyhXMVObNiBPsrm2vfnA-50" value="1" style="text;html=1;align=center;verticalAlign=middle;resizable=0;points=[];autosize=1;strokeColor=none;fillColor=none;" parent="1" vertex="1">
          <mxGeometry x="1695" y="260" width="30" height="30" as="geometry" />
        </mxCell>
        <mxCell id="RyhXMVObNiBPsrm2vfnA-51" value="1" style="text;html=1;align=center;verticalAlign=middle;resizable=0;points=[];autosize=1;strokeColor=none;fillColor=none;" parent="1" vertex="1">
          <mxGeometry x="1865" y="260" width="30" height="30" as="geometry" />
        </mxCell>
        <mxCell id="RyhXMVObNiBPsrm2vfnA-52" value="4" style="text;html=1;align=center;verticalAlign=middle;resizable=0;points=[];autosize=1;strokeColor=none;fillColor=none;" parent="1" vertex="1">
          <mxGeometry x="1705" y="318" width="30" height="30" as="geometry" />
        </mxCell>
        <mxCell id="RyhXMVObNiBPsrm2vfnA-53" value="3" style="text;html=1;align=center;verticalAlign=middle;resizable=0;points=[];autosize=1;" parent="1" vertex="1">
          <mxGeometry x="1535" y="328" width="30" height="30" as="geometry" />
        </mxCell>
        <mxCell id="RyhXMVObNiBPsrm2vfnA-57" value="7" style="text;html=1;align=center;verticalAlign=middle;resizable=0;points=[];autosize=1;strokeColor=none;fillColor=none;" parent="1" vertex="1">
          <mxGeometry x="1625" y="235" width="30" height="30" as="geometry" />
        </mxCell>
        <mxCell id="RyhXMVObNiBPsrm2vfnA-62" value="4" style="text;html=1;align=center;verticalAlign=middle;resizable=0;points=[];autosize=1;strokeColor=none;fillColor=none;" parent="1" vertex="1">
          <mxGeometry x="1785" y="238" width="30" height="30" as="geometry" />
        </mxCell>
        <mxCell id="RyhXMVObNiBPsrm2vfnA-63" value="3/3" style="text;html=1;align=center;verticalAlign=middle;resizable=0;points=[];autosize=1;strokeColor=none;fillColor=none;" parent="1" vertex="1">
          <mxGeometry x="230" y="220" width="40" height="30" as="geometry" />
        </mxCell>
        <mxCell id="RyhXMVObNiBPsrm2vfnA-64" value="10/10" style="text;html=1;align=center;verticalAlign=middle;resizable=0;points=[];autosize=1;strokeColor=none;fillColor=none;" parent="1" vertex="1">
          <mxGeometry x="355" y="208" width="50" height="30" as="geometry" />
        </mxCell>
        <mxCell id="RyhXMVObNiBPsrm2vfnA-65" value="12/12" style="text;html=1;align=center;verticalAlign=middle;resizable=0;points=[];autosize=1;strokeColor=none;fillColor=none;" parent="1" vertex="1">
          <mxGeometry x="485" y="218" width="50" height="30" as="geometry" />
        </mxCell>
        <mxCell id="RyhXMVObNiBPsrm2vfnA-66" value="14/14" style="text;html=1;align=center;verticalAlign=middle;resizable=0;points=[];autosize=1;strokeColor=none;fillColor=none;" parent="1" vertex="1">
          <mxGeometry x="610" y="50" width="50" height="30" as="geometry" />
        </mxCell>
        <mxCell id="RyhXMVObNiBPsrm2vfnA-67" value="16/16" style="text;html=1;align=center;verticalAlign=middle;resizable=0;points=[];autosize=1;strokeColor=none;fillColor=none;" parent="1" vertex="1">
          <mxGeometry x="755" y="48" width="50" height="30" as="geometry" />
        </mxCell>
        <mxCell id="RyhXMVObNiBPsrm2vfnA-68" value="21/21" style="text;html=1;align=center;verticalAlign=middle;resizable=0;points=[];autosize=1;strokeColor=none;fillColor=none;" parent="1" vertex="1">
          <mxGeometry x="885" y="140" width="50" height="30" as="geometry" />
        </mxCell>
        <mxCell id="RyhXMVObNiBPsrm2vfnA-69" value="16/15" style="text;html=1;align=center;verticalAlign=middle;resizable=0;points=[];autosize=1;strokeColor=none;fillColor=none;" parent="1" vertex="1">
          <mxGeometry x="615" y="208" width="50" height="30" as="geometry" />
        </mxCell>
        <mxCell id="RyhXMVObNiBPsrm2vfnA-70" value="18/17" style="text;html=1;align=center;verticalAlign=middle;resizable=0;points=[];autosize=1;strokeColor=none;fillColor=none;" parent="1" vertex="1">
          <mxGeometry x="745" y="198" width="50" height="30" as="geometry" />
        </mxCell>
        <mxCell id="RyhXMVObNiBPsrm2vfnA-71" value="30/14" style="text;html=1;align=center;verticalAlign=middle;resizable=0;points=[];autosize=1;" parent="1" vertex="1">
          <mxGeometry x="875" y="328" width="50" height="30" as="geometry" />
        </mxCell>
        <mxCell id="RyhXMVObNiBPsrm2vfnA-72" value="35/19" style="text;html=1;align=center;verticalAlign=middle;resizable=0;points=[];autosize=1;" parent="1" vertex="1">
          <mxGeometry x="995" y="338" width="50" height="30" as="geometry" />
        </mxCell>
        <mxCell id="RyhXMVObNiBPsrm2vfnA-73" value="40/24" style="text;html=1;align=center;verticalAlign=middle;resizable=0;points=[];autosize=1;strokeColor=none;fillColor=none;" parent="1" vertex="1">
          <mxGeometry x="1135" y="278" width="50" height="30" as="geometry" />
        </mxCell>
        <mxCell id="RyhXMVObNiBPsrm2vfnA-74" value="44/21" style="text;html=1;align=center;verticalAlign=middle;resizable=0;points=[];autosize=1;" parent="1" vertex="1">
          <mxGeometry x="1145" y="395" width="50" height="30" as="geometry" />
        </mxCell>
        <mxCell id="RyhXMVObNiBPsrm2vfnA-75" value="42/26" style="text;html=1;align=center;verticalAlign=middle;resizable=0;points=[];autosize=1;strokeColor=none;fillColor=none;" parent="1" vertex="1">
          <mxGeometry x="1285" y="275" width="50" height="30" as="geometry" />
        </mxCell>
        <mxCell id="RyhXMVObNiBPsrm2vfnA-76" value="23/23" style="text;html=1;align=center;verticalAlign=middle;resizable=0;points=[];autosize=1;strokeColor=none;fillColor=none;" parent="1" vertex="1">
          <mxGeometry x="1005" y="130" width="50" height="30" as="geometry" />
        </mxCell>
        <mxCell id="RyhXMVObNiBPsrm2vfnA-77" value="25/25" style="text;html=1;align=center;verticalAlign=middle;resizable=0;points=[];autosize=1;strokeColor=none;fillColor=none;" parent="1" vertex="1">
          <mxGeometry x="1145" y="128" width="50" height="30" as="geometry" />
        </mxCell>
        <mxCell id="RyhXMVObNiBPsrm2vfnA-78" value="39/39" style="text;html=1;align=center;verticalAlign=middle;resizable=0;points=[];autosize=1;strokeColor=none;fillColor=none;" parent="1" vertex="1">
          <mxGeometry x="1275" y="128" width="50" height="30" as="geometry" />
        </mxCell>
        <mxCell id="RyhXMVObNiBPsrm2vfnA-79" value="46/46" style="text;html=1;align=center;verticalAlign=middle;resizable=0;points=[];autosize=1;strokeColor=none;fillColor=none;" parent="1" vertex="1">
          <mxGeometry x="1485" y="248" width="50" height="30" as="geometry" />
        </mxCell>
        <mxCell id="RyhXMVObNiBPsrm2vfnA-80" value="50/53" style="text;html=1;align=center;verticalAlign=middle;resizable=0;points=[];autosize=1;strokeColor=none;fillColor=none;" parent="1" vertex="1">
          <mxGeometry x="1575" y="168" width="50" height="30" as="geometry" />
        </mxCell>
        <mxCell id="RyhXMVObNiBPsrm2vfnA-81" value="56/47" style="text;html=1;align=center;verticalAlign=middle;resizable=0;points=[];autosize=1;strokeColor=none;fillColor=none;" parent="1" vertex="1">
          <mxGeometry x="1570" y="248" width="50" height="30" as="geometry" />
        </mxCell>
        <mxCell id="RyhXMVObNiBPsrm2vfnA-83" value="54/49" style="text;html=1;align=center;verticalAlign=middle;resizable=0;points=[];autosize=1;strokeColor=none;fillColor=none;" parent="1" vertex="1">
          <mxGeometry x="1565" y="318" width="50" height="30" as="geometry" />
        </mxCell>
        <mxCell id="RyhXMVObNiBPsrm2vfnA-84" value="57/60" style="text;html=1;align=center;verticalAlign=middle;resizable=0;points=[];autosize=1;strokeColor=none;fillColor=none;" parent="1" vertex="1">
          <mxGeometry x="1645" y="248" width="50" height="30" as="geometry" />
        </mxCell>
        <mxCell id="RyhXMVObNiBPsrm2vfnA-85" value="61/64" style="text;html=1;align=center;verticalAlign=middle;resizable=0;points=[];autosize=1;strokeColor=none;fillColor=none;" parent="1" vertex="1">
          <mxGeometry x="1735" y="168" width="50" height="30" as="geometry" />
        </mxCell>
        <mxCell id="RyhXMVObNiBPsrm2vfnA-86" value="64/67" style="text;html=1;align=center;verticalAlign=middle;resizable=0;points=[];autosize=1;strokeColor=none;fillColor=none;" parent="1" vertex="1">
          <mxGeometry x="1725" y="248" width="50" height="30" as="geometry" />
        </mxCell>
        <mxCell id="RyhXMVObNiBPsrm2vfnA-87" value="61/64" style="text;html=1;align=center;verticalAlign=middle;resizable=0;points=[];autosize=1;strokeColor=none;fillColor=none;" parent="1" vertex="1">
          <mxGeometry x="1725" y="318" width="50" height="30" as="geometry" />
        </mxCell>
        <mxCell id="RyhXMVObNiBPsrm2vfnA-88" value="65/68" style="text;html=1;align=center;verticalAlign=middle;resizable=0;points=[];autosize=1;strokeColor=none;fillColor=none;" parent="1" vertex="1">
          <mxGeometry x="1805" y="248" width="50" height="30" as="geometry" />
        </mxCell>
        <mxCell id="RyhXMVObNiBPsrm2vfnA-89" value="69/70" style="text;html=1;align=center;verticalAlign=middle;resizable=0;points=[];autosize=1;strokeColor=none;fillColor=none;" parent="1" vertex="1">
          <mxGeometry x="1885" y="178" width="50" height="30" as="geometry" />
        </mxCell>
        <mxCell id="RyhXMVObNiBPsrm2vfnA-90" value="72/72" style="text;html=1;align=center;verticalAlign=middle;resizable=0;points=[];autosize=1;strokeColor=none;fillColor=none;" parent="1" vertex="1">
          <mxGeometry x="2045" y="240" width="50" height="30" as="geometry" />
        </mxCell>
        <mxCell id="RyhXMVObNiBPsrm2vfnA-91" value="71/69" style="text;html=1;align=center;verticalAlign=middle;resizable=0;points=[];autosize=1;strokeColor=none;fillColor=none;" parent="1" vertex="1">
          <mxGeometry x="1885" y="248" width="50" height="30" as="geometry" />
        </mxCell>
        <mxCell id="RyhXMVObNiBPsrm2vfnA-92" value="70/73" style="text;html=1;align=center;verticalAlign=middle;resizable=0;points=[];autosize=1;strokeColor=none;fillColor=none;" parent="1" vertex="1">
          <mxGeometry x="1885" y="318" width="50" height="30" as="geometry" />
        </mxCell>
        <mxCell id="RyhXMVObNiBPsrm2vfnA-93" value="71/70" style="text;html=1;align=center;verticalAlign=middle;resizable=0;points=[];autosize=1;strokeColor=none;fillColor=none;" parent="1" vertex="1">
          <mxGeometry x="1895" y="388" width="50" height="30" as="geometry" />
        </mxCell>
        <mxCell id="RyhXMVObNiBPsrm2vfnA-96" value="1" style="text;html=1;align=center;verticalAlign=middle;resizable=0;points=[];autosize=1;strokeColor=none;fillColor=none;" parent="1" vertex="1">
          <mxGeometry x="1775" y="260" width="30" height="30" as="geometry" />
        </mxCell>
        <mxCell id="RyhXMVObNiBPsrm2vfnA-97" value="4" style="text;html=1;align=center;verticalAlign=middle;resizable=0;points=[];autosize=1;strokeColor=none;fillColor=none;" parent="1" vertex="1">
          <mxGeometry x="1775" y="308" width="30" height="30" as="geometry" />
        </mxCell>
        <mxCell id="RyhXMVObNiBPsrm2vfnA-100" value="1" style="text;html=1;align=center;verticalAlign=middle;resizable=0;points=[];autosize=1;strokeColor=none;fillColor=none;" parent="1" vertex="1">
          <mxGeometry x="1615" y="268" width="30" height="30" as="geometry" />
        </mxCell>
        <mxCell id="RyhXMVObNiBPsrm2vfnA-101" value="3" style="text;html=1;align=center;verticalAlign=middle;resizable=0;points=[];autosize=1;" parent="1" vertex="1">
          <mxGeometry x="1615" y="328" width="30" height="30" as="geometry" />
        </mxCell>
        <mxCell id="hASZMVrLYLMnpr5vANGX-1" value="2" style="text;html=1;align=center;verticalAlign=middle;resizable=0;points=[];autosize=1;strokeColor=none;fillColor=none;" vertex="1" parent="1">
          <mxGeometry x="1085" y="176" width="30" height="30" as="geometry" />
        </mxCell>
      </root>
    </mxGraphModel>
  </diagram>
</mxfile>
